<svg xmlns="http://www.w3.org/2000/svg" version="1.1" xmlns:xlink="http://www.w3.org/1999/xlink" width="300" height="300"><svg xmlns="http://www.w3.org/2000/svg" version="1.1" xmlns:xlink="http://www.w3.org/1999/xlink" width="300" height="300"><svg width="300" height="300" version="1.1" viewBox="0 0 79.375 79.375" xmlns="http://www.w3.org/2000/svg">
 <path transform="translate(-.14618 -.14618)" x="0.14617863" y="0.14617863" width="79.375" height="79.375" rx="2.6458333" ry="2.6458333" d="m2.792 0.14618h74.083c1.4658 0 2.6458 1.18 2.6458 2.6458v74.083c0 1.4658-1.18 2.6458-2.6458 2.6458h-74.083c-1.4658 0-2.6458-1.18-2.6458-2.6458v-74.083c0-1.4658 1.18-2.6458 2.6458-2.6458z" fill="#f8fafc" stroke-width=".85303" style="font-variation-settings:'opsz' 32, 'wght' 500"></path>
 <path d="m10.412 7.1302c-1.8178 0-3.2819 1.4631-3.2819 3.2809v20.315h7.7425l-0.13896-11.957 20.77 21.001h0.0011v1e-3h-0.0011l-20.77 21.001 0.13896-11.958h-7.7425v20.15c0 1.8178 1.464 3.2809 3.2819 3.2809h20.333v-7.5533l-11.957 0.13869 21.001-20.77v-0.0011h1e-3v0.0011l21.001 20.77-11.958-0.13869v7.5533h20.131c1.8178 0 3.2819-1.4631 3.2819-3.2809v-20.149h-7.5439l0.13999 11.957-20.771-21.001v-1e-3h1e-3l20.77-21.001-0.13999 11.957h7.5439v-20.315c0-1.8178-1.464-3.2809-3.2819-3.2809h-20.131v7.7331l11.957-0.14013-21.001 20.771h-1e-3v-0.0011l-21.001-20.77 11.957 0.14013v-7.7331z" fill="#2d6a4f" stroke-width=".48316"></path>
</svg></svg><style>@media (prefers-color-scheme: light) { :root { filter: none; } }
@media (prefers-color-scheme: dark) { :root { filter: none; } }
</style></svg>