<svg xmlns="http://www.w3.org/2000/svg" version="1.1" xmlns:xlink="http://www.w3.org/1999/xlink" width="1000" height="1000"><g clip-path="url(#SvgjsClipPath1067)"><rect width="1000" height="1000" fill="#f8fafc"></rect><g transform="matrix(3.3333333333333335,0,0,3.3333333333333335,0,0)"><svg xmlns="http://www.w3.org/2000/svg" version="1.1" xmlns:xlink="http://www.w3.org/1999/xlink" width="300" height="300"><svg width="300" height="300" version="1.1" viewBox="0 0 79.375 79.375" xmlns="http://www.w3.org/2000/svg">
 <path d="m18.883 17.345c-1.3118 0-2.3683 1.0558-2.3683 2.3676v14.66h5.5872l-0.10028-8.6288 14.988 15.155h7.59e-4v7.38e-4h-7.63e-4l-14.988 15.155 0.10028-8.6295h-5.5872v14.541c0 1.3118 1.0565 2.3676 2.3683 2.3676h14.673v-5.4507l-8.6288 0.10008 15.155-14.988v-7.89e-4h7.53e-4v7.89e-4l15.155 14.988-8.6296-0.10008v5.4507h14.527c1.3118 0 2.3683-1.0558 2.3683-2.3676v-14.54h-5.4439l0.10102 8.6287-14.989-15.155v-7.38e-4h7.53e-4l14.988-15.155-0.10102 8.6288h5.4439v-14.66c0-1.3118-1.0565-2.3676-2.3683-2.3676h-14.527v5.5804l8.6288-0.10112-15.155 14.989h-7.55e-4v-7.92e-4l-15.155-14.988 8.6288 0.10112v-5.5804z" fill="#2d6a4f" stroke-width=".34866"></path>
</svg></svg></g></g><defs><clipPath id="SvgjsClipPath1067"><rect width="1000" height="1000" x="0" y="0" rx="100" ry="100"></rect></clipPath></defs></svg>