<svg width="300" height="300" version="1.1" viewBox="0 0 79.375 79.375" xmlns="http://www.w3.org/2000/svg">
 <path transform="translate(-9.9401 -6.2857)" x="9.9401474" y="6.2856812" width="79.375" height="79.375" rx="2.6458333" ry="2.6458333" d="m12.586 6.2857h74.083c1.4658 0 2.6458 1.18 2.6458 2.6458v74.083c0 1.4658-1.18 2.6458-2.6458 2.6458h-74.083c-1.4658 0-2.6458-1.18-2.6458-2.6458v-74.083c0-1.4658 1.18-2.6458 2.6458-2.6458z" fill="#f8fafc" stroke-width=".8546" style="font-variation-settings:'opsz' 32, 'wght' 500"/>
 <path d="m18.561 16.193c-1.3118 0-2.3683 1.0558-2.3683 2.3676v14.66h5.5872l-0.10028-8.6288 14.988 15.155h7.59e-4v7.38e-4h-7.63e-4l-14.988 15.155 0.10028-8.6295h-5.5872v14.541c0 1.3118 1.0565 2.3676 2.3683 2.3676h14.673v-5.4507l-8.6288 0.10008 15.155-14.988v-7.89e-4h7.53e-4v7.89e-4l15.155 14.988-8.6296-0.10008v5.4507h14.527c1.3118 0 2.3683-1.0558 2.3683-2.3676v-14.54h-5.4439l0.10102 8.6287-14.989-15.155v-7.38e-4h7.54e-4l14.988-15.155-0.10102 8.6288h5.4439v-14.66c0-1.3118-1.0565-2.3676-2.3683-2.3676h-14.527v5.5804l8.6288-0.10112-15.155 14.989h-7.54e-4v-7.92e-4l-15.155-14.988 8.6288 0.10112v-5.5804z" fill="#2d6a4f" stroke-width=".34866"/>
</svg>
