<svg width="650" height="160" version="1.1" viewBox="0 0 171.98 42.333" xmlns="http://www.w3.org/2000/svg">
 <g transform="translate(.52655 1.5934)">
  <path d="m45.12 29.163q-2.6171 0-4.6214-1.2383t-3.1277-3.4469-1.1234-5.1193q0-2.9362 1.1234-5.1448 1.1234-2.2213 3.1277-3.4469 2.0043-1.2383 4.6214-1.2383 1.5575 0 2.8979 0.47235 1.3532 0.45958 2.4128 1.3277 1.0724 0.8681 1.7617 2.0937t0.9447 2.7447h-2.8852q-0.20426-0.97023-0.66384-1.7234-0.45958-0.75321-1.1234-1.2766-0.66384-0.52342-1.5064-0.77874-0.84257-0.26809-1.8128-0.26809-1.8766 0-3.2299 0.9064t-2.0937 2.5405q-0.72767 1.6213-0.72767 3.7916 0 2.1575 0.72767 3.7788 0.74044 1.6213 2.0937 2.5277t3.2299 0.9064q0.97023 0 1.8-0.25532 0.84257-0.26809 1.5064-0.77874 0.66384-0.52342 1.1234-1.2766 0.45958-0.75321 0.68938-1.7107h2.8724q-0.24256 1.5064-0.9447 2.732-0.68938 1.2256-1.7617 2.0937-1.0596 0.8681-2.4128 1.3277-1.3405 0.45958-2.8979 0.45958zm16.29 0q-2.0043 0-3.4469-0.9064-1.4298-0.9064-2.2086-2.4894-0.76597-1.5958-0.76597-3.6256 0-2.0681 0.80427-3.6511 0.80427-1.5958 2.2213-2.5022 1.417-0.91917 3.2554-0.91917 1.4298 0 2.5788 0.51065 1.1617 0.51065 1.9915 1.4553 0.8298 0.93193 1.2766 2.2213 0.44682 1.2894 0.44682 2.8596v0.72767h-11.362v-2.0426h9.9449l-1.1873 0.62554q0-1.2511-0.44682-2.1703-0.44682-0.93193-1.2766-1.4298-0.81704-0.51065-1.9405-0.51065-1.1107 0-1.9277 0.51065-0.81704 0.49788-1.2766 1.4298-0.44682 0.91917-0.44682 2.1703v1.1617q0 1.2766 0.44682 2.2596 0.44682 0.97023 1.2894 1.5192 0.85534 0.54895 2.0681 0.54895 0.88087 0 1.5575-0.26809 0.67661-0.28086 1.1234-0.76597 0.44682-0.48512 0.63831-1.1234h2.5915q-0.24256 1.3022-1.0851 2.2979-0.8298 0.983-2.0937 1.5447-1.2511 0.56171-2.7703 0.56171zm11.17-8.0682v7.7619h-2.6937v-13.481h2.6426v3.3447h-0.62554q0.66384-1.8128 1.8383-2.7064 1.1873-0.9064 2.8596-0.9064 1.3915 0 2.4894 0.61278 1.1107 0.60001 1.749 1.7873 0.63831 1.1873 0.63831 2.949v8.4002h-2.6937v-8.0682q0-1.6213-0.77874-2.4383-0.76597-0.8298-2.1703-0.8298-0.91917 0-1.6596 0.37022-0.72767 0.37022-1.1617 1.1617-0.43405 0.7915-0.43405 2.0426zm18.434-5.7193v2.2213h-7.8129v-2.2213zm-5.4384-3.6767h2.6937v13.596q0 0.74044 0.30639 1.0468 0.31916 0.29362 1.1234 0.29362 0.30639 0 0.67661 0t0.63831 0v2.2213q-0.33192 0-0.80427 0-0.45958 0-0.89363 0-1.9022 0-2.8213-0.7915-0.91917-0.80427-0.91917-2.4256zm7.5704 17.158v-13.481h2.5788v2.183h0.05107q0.37022-1.1107 1.1617-1.7234 0.80427-0.62554 2.0937-0.62554 0.30639 0 0.56171 0.02553 0.26809 0.01277 0.42128 0.0383v2.5149q-0.15319-0.0383-0.54894-0.0766-0.39575-0.05106-0.8681-0.05106-0.75321 0-1.3915 0.34469-0.62554 0.34469-0.99576 1.0596t-0.37022 1.8256v7.9661zm12.648 0.21703q-1.3404 0-2.4-0.45958-1.0468-0.45958-1.6596-1.366t-0.61278-2.2469q0-1.149 0.43405-1.8894 0.44682-0.74044 1.2-1.1745 0.7532-0.43405 1.7107-0.65108 0.95746-0.22979 1.9788-0.34469 1.2766-0.16596 2.0043-0.25532 0.74044-0.10213 1.0468-0.30639 0.31915-0.21702 0.31915-0.70214v-0.1149q0-0.65108-0.31915-1.149-0.31916-0.51065-0.93194-0.80427t-1.4681-0.29362q-0.85534 0-1.5192 0.28086-0.65108 0.28086-1.0468 0.77874-0.38299 0.48512-0.43405 1.1107h-2.6426q0.0638-1.2894 0.77874-2.2724 0.71491-0.983 1.966-1.5447 1.2511-0.56171 2.9362-0.56171 1.2383 0 2.2341 0.31916 0.99577 0.31916 1.6851 0.91917 0.70214 0.58725 1.0596 1.417 0.37022 0.8298 0.37022 1.8511v9.2427h-2.6554v-1.9149h-0.0511q-0.28085 0.54895-0.76597 1.0341t-1.2766 0.7915q-0.77874 0.30639-1.9405 0.30639zm0.54895-2.1703q1.1873 0 1.9532-0.42128 0.77874-0.43405 1.149-1.1362 0.38299-0.70214 0.38299-1.5319v-1.583q-0.14043 0.1149-0.45959 0.21702-0.30639 0.08936-0.7532 0.17873-0.44682 0.0766-0.97024 0.16596-0.52341 0.08936-1.0468 0.1532-0.74044 0.10213-1.3788 0.34469-0.63831 0.22979-1.0341 0.65108-0.38298 0.42128-0.38298 1.1107 0 0.57448 0.30638 0.99576 0.30639 0.40852 0.88087 0.63831 0.57448 0.21702 1.3532 0.21702zm11.873-17.068v19.022h-2.6937v-19.022z" fill="#f8fafc" stroke-width="2.1788" style="font-variation-settings:'opsz' 32, 'wght' 500" aria-label="Central"/>
  <path d="m127.44 29.484q-2.349 0-4.0341-0.77874t-2.5915-2.2341-0.9064-3.4979h3.3064q0.0128 1.149 0.52341 1.9788 0.51065 0.81704 1.4554 1.2511 0.95746 0.43405 2.2724 0.43405 1.1873 0 2.0681-0.33192 0.89364-0.34469 1.3788-0.95747 0.49788-0.62554 0.49788-1.4553 0-0.67661-0.35745-1.1745t-1.1362-0.8681q-0.76598-0.37022-2.0426-0.66384l-2.0426-0.45958q-2.8469-0.65108-4.2001-1.9277-1.3532-1.2766-1.3532-3.2809 0-1.7107 0.8681-2.9745 0.88087-1.2766 2.4511-1.9788 1.583-0.71491 3.6767-0.71491 2.132 0 3.6767 0.74044 1.5575 0.72767 2.4128 2.0937 0.86811 1.3532 0.91917 3.2426h-3.2043q-0.10213-1.5064-1.1234-2.3617-1.0213-0.85534-2.6937-0.85534-1.0468 0-1.8639 0.34469-0.81704 0.33192-1.2766 0.93193-0.45959 0.58724-0.45959 1.366 0 0.63831 0.34469 1.1107 0.35745 0.45958 1.1107 0.81704 0.76597 0.35745 2.0043 0.63831l1.9277 0.44682q1.4809 0.33192 2.5532 0.81704 1.0851 0.47235 1.7873 1.1234 0.70214 0.65108 1.0341 1.4936 0.34469 0.84257 0.34469 1.8894 0 1.7745-0.89364 3.0767-0.89363 1.3022-2.5405 2.0171-1.6468 0.70214-3.8937 0.70214zm9.9321 5.0299v-2.6171h1.5958q0.43405 0 0.72768-0.15319 0.30638-0.1532 0.52341-0.48512 0.22979-0.33192 0.40852-0.85534l0.49788-1.3022-5.1958-13.405h3.4086l2.4766 7.0214q0.38298 1.1234 0.72767 2.2469 0.35745 1.1107 0.68938 2.2213h-0.89364q0.31916-1.1107 0.67661-2.2341t0.74044-2.2341l2.4639-7.0214h3.3703l-6.0256 15.702q-0.40852 1.0468-0.983 1.7362-0.57448 0.70214-1.3532 1.0341-0.76597 0.34469-1.749 0.34469-0.51065 0-1.0468 0t-1.0596 0zm18.907-5.0171q-1.6341 0-2.9362-0.51065-1.3022-0.52342-2.0937-1.5192-0.79151-1.0085-0.89364-2.4511h3.1788q0.10213 0.983 0.7915 1.5319 0.70215 0.53618 1.9022 0.53618 1.1617 0 1.8256-0.45958 0.67661-0.45958 0.67661-1.1745 0-0.61278-0.49789-0.983-0.48511-0.37022-1.3404-0.54895l-2.2979-0.47235q-1.9405-0.40852-2.9362-1.3915-0.99577-0.983-0.99577-2.5022 0-1.2383 0.66384-2.1703 0.67661-0.93193 1.8894-1.4553 1.2256-0.52342 2.8724-0.52342 1.6341 0 2.8724 0.54895 1.2511 0.54895 1.9532 1.5575 0.71491 0.99576 0.75321 2.3873h-3.0256q-0.0128-0.9064-0.70214-1.4936-0.67661-0.58725-1.7745-0.58725-1.0596 0-1.6724 0.47235-0.61277 0.47235-0.61277 1.1617 0 0.60001 0.47235 0.983 0.47235 0.37022 1.3149 0.56171l2.4256 0.49788q2.0043 0.42128 2.949 1.3277 0.95747 0.9064 0.95747 2.3873 0 1.3149-0.74044 2.2852-0.72768 0.95747-2.0171 1.4809-1.2894 0.52341-2.9618 0.52341z" fill="#2d6a4f" stroke-width="2.1918" style="font-variation-settings:'opsz' 32, 'wght' 600" aria-label="Sys"/>
  <path d="m10.081 7.7269c-0.63993 0-1.1553 0.51503-1.1553 1.155v7.1515h2.7255l-0.04892-4.2093 7.3115 7.3928h3.7e-4v3.6e-4h-3.72e-4l-7.3115 7.3928 0.04892-4.2097h-2.7255v7.0934c0 0.63993 0.51538 1.155 1.1553 1.155h7.1577v-2.659l-4.2093 0.04882 7.3928-7.3115v-3.86e-4h3.67e-4v3.86e-4l7.3928 7.3115-4.2097-0.04882v2.659h7.0868c0.63993 0 1.1553-0.51503 1.1553-1.155v-7.093h-2.6556l0.04928 4.2093-7.3119-7.3928v-3.6e-4h3.67e-4l7.3115-7.3928-0.04928 4.2093h2.6556v-7.1515c0-0.63993-0.51538-1.155-1.1553-1.155h-7.0864v2.7222l4.2093-0.04933-7.3928 7.3119h-3.68e-4v-3.85e-4l-7.3928-7.3115 4.2093 0.04933v-2.7222z" fill="#2d6a4f" stroke-width=".17008"/>
 </g>
</svg>
